<?xml version="1.0" encoding="utf-8"?>
<!-- Generator: Adobe Illustrator 22.1.0, SVG Export Plug-In . SVG Version: 6.00 Build 0)  -->
<svg version="1.1" id="Layer_1" xmlns="http://www.w3.org/2000/svg" xmlns:xlink="http://www.w3.org/1999/xlink" x="0px" y="0px"
	 viewBox="0 0 26 26" style="enable-background:new 0 0 26 26;" xml:space="preserve">
<style type="text/css">
	.st0{fill:#F9F9F9;}
</style>
<path class="st0" d="M13,0L13,0c7.2,0,13,5.8,13,13l0,0c0,7.2-5.8,13-13,13l0,0C5.8,26,0,20.2,0,13l0,0C0,5.8,5.8,0,13,0z"/>
<path d="M15.4,15c1.4-0.6,2.3-1.9,2.3-3.5c0-2.1-1.7-3.8-3.8-3.8s-3.8,1.7-3.8,3.8c0,1.6,1,2.9,2.3,3.5c-1.4,0.2-2.7,0.8-3.8,1.6
	l1.4,1.8c1.1-0.8,2.4-1.3,3.8-1.3c1.4,0,2.7,0.5,3.8,1.3l1.4-1.8C18.1,15.8,16.8,15.2,15.4,15z"/>
</svg>
